<?xml version="1.0" encoding="iso-8859-1"?>
<!-- Generator: Adobe Illustrator 19.0.0, SVG Export Plug-In . SVG Version: 6.00 Build 0)  -->
<svg version="1.1" id="Layer_1" xmlns="http://www.w3.org/2000/svg" xmlns:xlink="http://www.w3.org/1999/xlink" x="0px" y="0px"
	 viewBox="0 0 512.001 512.001" style="enable-background:new 0 0 512.001 512.001;" xml:space="preserve">
<path style="fill:#957856;" d="M342.92,488.846c0-108.122-38.916-195.773-86.921-195.773s-86.921,87.65-86.921,195.773
	c0,14.767,4.199,15.551,8.825,15.551h156.224C338.625,504.396,342.92,502.865,342.92,488.846z"/>
<g>
	<path style="fill:#806749;" d="M169.077,488.846c0,14.767,4.199,15.551,8.825,15.551h42.512c-4.625,0-8.825-0.783-8.825-15.551
		c0-91.604,27.936-168.505,65.665-189.866c-6.803-3.852-13.922-5.907-21.256-5.907C207.993,293.074,169.077,380.724,169.077,488.846
		z"/>
	<path style="fill:#806749;" d="M339.448,433.789l-36.281-15.386l-47.139,20.277l-47.147-20.277l-36.261,15.14
		c-0.767,5.877-1.414,11.868-1.936,17.961l38.198-16.546l47.147,20.277l47.139-20.277l38.147,16.089
		C340.806,445.196,340.182,439.439,339.448,433.789z"/>
</g>
<path style="fill:#5F4D37;" d="M337.682,421.767l-34.537-14.856l-47.139,20.277l-47.147-20.277l-34.543,14.857
	c-0.931,5.746-1.743,11.619-2.435,17.602l36.979-15.903l47.147,20.277l47.139-20.277l36.973,15.903
	C339.425,433.387,338.613,427.514,337.682,421.767z"/>
<path style="fill:#FFA733;" d="M383.426,68.21H128.577c-14.126,0-25.684-11.558-25.684-25.684v-9.236
	c0-14.126,11.558-25.684,25.684-25.684h254.848c14.126,0,25.684,11.558,25.684,25.684v9.236
	C409.111,56.652,397.553,68.21,383.426,68.21z"/>
<path style="fill:#EE8700;" d="M184.95,42.525v-9.236c0-14.126,11.558-25.684,25.684-25.684h-82.058
	c-14.126,0-25.684,11.558-25.684,25.684v9.236c0,14.126,11.558,25.684,25.684,25.684h82.058
	C196.508,68.21,184.95,56.652,184.95,42.525z"/>
<path style="fill:#806749;" d="M98.268,41.705c1.945,132.363,49.184,243.224,113.361,278.834h88.745
	c64.177-35.61,111.417-146.471,113.361-278.834L98.268,41.705L98.268,41.705z"/>
<g>
	<path style="fill:#5F4D37;" d="M160.195,41.705H98.268c1.945,132.363,49.184,243.224,113.361,278.834h61.928
		C209.379,284.93,162.139,174.068,160.195,41.705z"/>
	<path style="fill:#5F4D37;" d="M205.588,250.959c-14.562-39.077-31.381-103.22-28.811-186.876c0.13-4.198-3.169-7.705-7.367-7.834
		c-4.232-0.151-7.705,3.169-7.834,7.367c-2.657,86.466,14.851,152.853,30.008,193.318c12.395,33.094,25.101,54.538,30.986,63.605
		c0,0,16.503-2.861,15.591-4.104C237.995,316.209,221.376,293.329,205.588,250.959z"/>
	<path style="fill:#5F4D37;" d="M243.687,64.216c0.202-4.194-3.033-7.758-7.229-7.962c-4.194-0.2-7.758,3.032-7.962,7.228
		c-0.071,1.47-6.7,147.226,22.931,257.056c0,0,15.462-1.08,15.312-1.62C237.009,211.199,243.617,65.673,243.687,64.216z"/>
	<path style="fill:#5F4D37;" d="M332.425,295.138c5.242-10.357,11.163-23.377,17.019-39.01
		C364.6,215.663,382.11,149.276,379.452,62.81c-0.129-4.197-3.596-7.525-7.834-7.367c-4.197,0.129-7.495,3.636-7.367,7.834
		c2.57,83.657-14.249,147.799-28.811,186.876c-15.788,42.371-34.01,68.292-34.045,69.798
		C312.279,313.76,322.669,305.402,332.425,295.138z"/>
	<path style="fill:#5F4D37;" d="M312.531,62.676c-0.203-4.194-3.731-7.434-7.963-7.228c-4.194,0.203-7.431,3.768-7.228,7.963
		c0.07,1.457,6.695,146.927-23.053,254.703c-0.224,0.811,15.096,2.425,15.096,2.425C319.264,210.618,312.602,64.15,312.531,62.676z"
		/>
</g>
<path style="fill:#FFDA44;" d="M412.217,63.716H99.786c-7.064,0-12.843-5.779-12.843-12.843v-4.618
	c0-7.064,5.779-12.843,12.843-12.843h312.432c7.064,0,12.843,5.779,12.843,12.843v4.618
	C425.059,57.937,419.28,63.716,412.217,63.716z"/>
<path style="fill:#EEBF00;" d="M172.109,50.874v-4.618c0-7.064,5.779-12.843,12.843-12.843H99.787
	c-7.064,0-12.843,5.779-12.843,12.843v4.618c0,7.064,5.779,12.843,12.843,12.843h85.164
	C177.888,63.716,172.109,57.937,172.109,50.874z"/>
<path style="fill:#FFDA44;" d="M339.567,504.396H171.929c-6.456,0-11.737-5.282-11.737-11.737l0,0
	c0-6.455,5.282-11.737,11.737-11.737h167.637c6.455,0,11.737,5.282,11.737,11.737l0,0
	C351.305,499.115,346.022,504.396,339.567,504.396z"/>
<path style="fill:#EEBF00;" d="M220.811,492.659c0-6.455,5.282-11.737,11.737-11.737h-60.62c-6.456,0-11.737,5.282-11.737,11.737
	s5.282,11.737,11.737,11.737h60.62C226.094,504.396,220.811,499.114,220.811,492.659z"/>
<path d="M415.939,26.165C412.667,11.222,399.336,0,383.427,0h-52.399c-4.2,0-7.604,3.404-7.604,7.604s3.404,7.604,7.604,7.604
	h52.399c7.3,0,13.589,4.358,16.441,10.601H112.137c2.852-6.243,9.14-10.601,16.44-10.601h168.618c4.2,0,7.604-3.404,7.604-7.604
	S301.395,0,297.195,0H128.576c-15.91,0-29.241,11.222-32.513,26.165c-9.5,1.757-16.724,10.089-16.724,20.091v4.618
	c0,8.422,5.121,15.668,12.412,18.797c0.126,1.996,0.265,3.988,0.412,5.976c-0.813,2.135-0.61,4.526,0.516,6.49
	c2.651,31.082,7.812,61.01,15.41,89.183c0.915,3.391,3.984,5.626,7.336,5.626c0.655,0,1.322-0.085,1.985-0.265
	c4.054-1.093,6.454-5.266,5.361-9.321c-6.524-24.193-11.199-49.743-13.972-76.247c4.507,1.336,9.989,2.335,16.317,2.335
	c6.416,0,13.703-1.033,21.713-3.773c1.178,73.6,16.623,130.627,30.194,166.858c6.952,18.561,13.997,33.441,19.886,44.544
	c-18.218-15.348-34.859-37.685-48.844-65.774c-1.872-3.759-6.438-5.287-10.196-3.418c-3.759,1.873-5.289,6.437-3.418,10.196
	c18.229,36.614,41.018,64.335,66.267,80.751c-15.782,24.221-27.511,58.379-33.864,97.474c-0.02,0.103-0.033,0.209-0.049,0.313
	c-2.862,17.706-4.618,36.421-5.151,55.683c-5.437,3.427-9.068,9.469-9.068,16.358c0,10.666,8.677,19.341,19.341,19.341h167.638
	c10.666,0,19.341-8.677,19.341-19.341c0-6.676-3.4-12.572-8.56-16.049c-1.675-62.02-16.085-118.485-39.072-153.774
	c28.406-18.432,53.397-50.816,72.621-94.277c18.921-42.78,31.131-93.796,35.597-148.393c0.535-1.375,0.67-2.898,0.344-4.383
	c0.15-2.034,0.291-4.072,0.42-6.115c7.287-3.13,12.405-10.374,12.405-18.794v-4.618C432.663,36.254,425.439,27.922,415.939,26.165z
	 M181.152,427.105l27.706-11.916l44.143,18.986c0.958,0.413,1.981,0.618,3.004,0.618c1.023,0,2.046-0.206,3.005-0.618l23.57-10.139
	c3.858-1.66,5.64-6.132,3.98-9.991c-1.66-3.858-6.131-5.64-9.991-3.98l-20.565,8.847l-44.143-18.986
	c-1.917-0.825-4.091-0.825-6.008,0l-21.569,9.277c6.627-32.909,17.337-61.16,31.184-81.06h81.054
	c22.216,31.935,36.4,85.449,38.513,145.174H176.963C177.527,457.368,178.947,441.868,181.152,427.105z M228.858,71.394
	c0.001-0.024,0.001-0.05,0.002-0.074h54.209c0.002,0.084,0.005,0.159,0.007,0.243C259.749,84.452,236.462,75.149,228.858,71.394z
	 M298.28,71.32h51.602c0.004,0.285,0.004,0.565,0.008,0.849c-21.599,11.265-42.929,3.907-51.589-0.076
	C298.294,71.834,298.287,71.568,298.28,71.32z M349.685,56.112h-51.707V41.017h51.707V56.112z M282.771,56.112h-53.636V41.017
	h53.636V56.112z M213.926,56.112h-51.707V41.017h51.707V56.112z M162.034,71.32h51.614c-0.009,0.317-0.018,0.638-0.027,0.971
	c-21.721,11.191-43.127,3.629-51.595-0.311C162.029,71.759,162.03,71.541,162.034,71.32z M228.532,87.809
	c7.028,2.713,17.206,5.573,28.916,5.573c8.1,0,16.928-1.381,25.943-5.114c0.488,45.669-1.285,144.634-22.378,224.666h-10.33
	C229.6,232.322,228.003,132.745,228.532,87.809z M276.716,312.934c20.496-80.653,22.337-178.377,21.878-224.349
	c6.889,2.456,16.23,4.797,26.824,4.797c7.651,0,15.953-1.222,24.448-4.505c-1.169,70.997-15.973,125.952-28.987,160.873
	c-12.965,34.793-26.481,56.427-30.995,63.183h-13.168V312.934z M365.106,73.125c-0.007-0.603-0.008-1.2-0.017-1.806h39.8
	c-0.027,0.41-0.05,0.823-0.078,1.233C385.008,81.008,370.914,76.112,365.106,73.125z M417.455,50.874
	c0,2.84-2.399,5.239-5.238,5.239h-47.324V41.017h47.324c2.839,0,5.238,2.399,5.238,5.239V50.874z M94.548,46.255
	c0-2.84,2.399-5.239,5.238-5.239h47.226v15.095H99.786c-2.839,0-5.238-2.399-5.238-5.239V46.255z M107.314,74.314
	c-0.073-0.998-0.148-1.994-0.215-2.994h39.726c-0.011,0.689-0.011,1.366-0.02,2.052C127.387,81.765,113.426,77.324,107.314,74.314z
	 M162.017,88.389c6.938,2.526,16.496,4.993,27.371,4.993c7.493,0,15.613-1.181,23.926-4.314
	c-0.469,45.687,1.318,143.184,21.669,223.866h-13.496c-4.975-7.561-17.974-28.867-30.461-62.378
	C177.933,215.422,163.024,160.014,162.017,88.389z M339.567,496.792H171.929c-2.241,0-4.134-1.893-4.134-4.133
	c0-2.241,1.893-4.134,4.134-4.134h167.638c2.241,0,4.134,1.893,4.134,4.134C343.701,494.899,341.808,496.792,339.567,496.792z
	 M369.989,222.407c-15.408,34.835-34.486,61.9-55.873,79.515c6.059-11.26,13.465-26.704,20.766-46.197
	c13.53-36.124,28.922-92.919,30.182-166.202c4.851,1.647,11.031,2.98,18.342,2.98c5.945,0,12.639-0.89,19.962-3.2
	C398.413,138.278,387.031,183.876,369.989,222.407z"/>
<path d="M137.491,211.683c-2.447-6.091-4.8-12.445-6.991-18.885c-1.351-3.975-5.67-6.103-9.648-4.751
	c-3.976,1.352-6.103,5.672-4.751,9.648c2.278,6.699,4.727,13.314,7.277,19.66c1.192,2.968,4.044,4.77,7.058,4.77
	c0.945,0,1.904-0.177,2.834-0.551C137.168,220.008,139.058,215.58,137.491,211.683z"/>
<g>
</g>
<g>
</g>
<g>
</g>
<g>
</g>
<g>
</g>
<g>
</g>
<g>
</g>
<g>
</g>
<g>
</g>
<g>
</g>
<g>
</g>
<g>
</g>
<g>
</g>
<g>
</g>
<g>
</g>
</svg>
