<?xml version="1.0" encoding="iso-8859-1"?>
<!-- Generator: Adobe Illustrator 19.0.0, SVG Export Plug-In . SVG Version: 6.00 Build 0)  -->
<svg version="1.1" id="Layer_1" xmlns="http://www.w3.org/2000/svg" xmlns:xlink="http://www.w3.org/1999/xlink" x="0px" y="0px"
	 viewBox="0 0 512 512" style="enable-background:new 0 0 512 512;" xml:space="preserve">
<path style="fill:#FFE477;" d="M504.422,27.124c-0.195-0.195-19.164-19.164-19.359-19.359
	c-100.74,24.79-82.807,62.765-82.807,62.765l13.635,25.766l25.766,13.635C441.657,109.931,479.633,127.864,504.422,27.124z"/>
<path style="fill:#FFD422;" d="M502.15,24.852c-5.079-5.079-16.934-16.934-17.087-17.087c-100.74,24.79-82.807,62.765-82.807,62.765
	l13.635,25.766l11.174,5.913l-7.722-14.592C419.343,87.617,401.41,49.641,502.15,24.852z"/>
<rect x="215.898" y="16.205" transform="matrix(-0.7071 -0.7071 0.7071 -0.7071 225.9428 630.229)" style="fill:#FFE477;" width="55.197" height="504.231"/>
<rect x="-19.596" y="245.258" transform="matrix(-0.7071 0.7071 -0.7071 -0.7071 578.9034 274.891)" style="fill:#FFD422;" width="504.231" height="24.165"/>
<path style="fill:#FFE477;" d="M66.432,490.698c5.099-14.241,27.779-33.404,27.779-33.404l-39.69-39.69
	c0,0-19.163,22.68-33.404,27.778L66.432,490.698z"/>
<g>
	<path style="fill:#FFD422;" d="M70.587,433.67l-16.066-16.066c0,0-19.163,22.68-33.404,27.778l16.066,16.066
		C51.424,456.35,70.587,433.67,70.587,433.67z"/>
	<path style="fill:#FFD422;" d="M409.152,144.938l-42.277-42.277c-2.849-2.849-2.849-7.51,0-10.358l4.937-4.938
		c2.848-2.848,7.509-2.848,10.358,0l42.278,42.278c2.849,2.849,2.849,7.509,0,10.358l-4.937,4.937
		C416.663,147.787,412.001,147.787,409.152,144.938z"/>
</g>
<path style="fill:#EEBF00;" d="M385.313,105.803c4.207-4.207,11.09-4.207,15.295,0L384.64,89.834c-4.207-4.207-11.09-4.207-15.295,0
	c-4.207,4.207-4.207,11.09,0,15.296l15.968,15.968C381.106,116.893,381.106,110.009,385.313,105.803z"/>
<path style="fill:#FFD422;" d="M51.991,502.101L9.714,459.823c-2.849-2.848-2.849-7.509,0-10.358l4.937-4.937
	c2.849-2.849,7.509-2.849,10.358,0l42.277,42.278c2.849,2.849,2.849,7.51,0,10.358l-4.937,4.937
	C59.501,504.949,54.839,504.949,51.991,502.101z"/>
<path style="fill:#EEBF00;" d="M27.528,462.343c4.207-4.207,11.09-4.207,15.295,0l-15.346-15.347c-4.207-4.207-11.09-4.207-15.295,0
	c-4.207,4.207-4.207,11.09,0,15.296l15.347,15.347C23.323,473.432,23.323,466.55,27.528,462.343z"/>
<path style="fill:#FFD422;" d="M132.164,418.593l-38.942-38.942c0,0-37.975,3.165-41.14,41.14l38.942,38.941
	C128.999,456.568,132.164,418.593,132.164,418.593z"/>
<path style="fill:#EEBF00;" d="M109.457,395.886L93.221,379.65c0,0-37.975,3.165-41.14,41.14l16.236,16.236
	C71.481,399.051,109.457,395.886,109.457,395.886z"/>
<g>
	<circle style="fill:#3E3D42;" cx="360.326" cy="151.488" r="10.814"/>
	<circle style="fill:#3E3D42;" cx="323.149" cy="188.665" r="10.814"/>
	<circle style="fill:#3E3D42;" cx="285.961" cy="225.852" r="10.814"/>
	<circle style="fill:#3E3D42;" cx="248.784" cy="263.03" r="10.814"/>
	<circle style="fill:#3E3D42;" cx="211.607" cy="300.207" r="10.814"/>
	<circle style="fill:#3E3D42;" cx="174.42" cy="337.394" r="10.814"/>
	<circle style="fill:#3E3D42;" cx="137.243" cy="374.571" r="10.814"/>
	<circle style="fill:#3E3D42;" cx="92.125" cy="419.689" r="10.814"/>
	<path style="fill:#3E3D42;" d="M437.537,96.844l-22.196-22.196c-0.786-0.786-0.786-2.072,0-2.857l14.811-14.811
		c0.786-0.786,2.072-0.786,2.857,0l22.196,22.195c0.786,0.786,0.786,2.072,0,2.858l-14.811,14.811
		C439.608,97.63,438.322,97.63,437.537,96.844z"/>
</g>
<path style="fill:#2D2D30;" d="M454.525,78.494l-20.833-20.833c-1.16-1.161-3.059-1.161-4.22,0l-5.275,5.275l25.053,25.053
	l5.275-5.275C455.686,81.553,455.686,79.655,454.525,78.494z"/>
<path d="M509.78,21.767c-0.195-0.195-19.173-19.172-19.367-19.367c-1.874-1.87-4.591-2.626-7.162-1.993
	c-14.399,3.543-27.273,7.576-38.264,11.985c-3.884,1.558-5.77,5.97-4.212,9.853c1.558,3.884,5.971,5.769,9.853,4.212
	c9.287-3.726,20.076-7.182,32.117-10.293c3.625,3.625,9.652,9.651,13.279,13.279c-13.409,51.861-30.017,67.144-38.858,71.635
	c-7.072,3.591-12.088,1.984-12.833,1.707c-2.927-1.525-6.18-0.808-8.52,1.534l-12.987,12.988l-28.314-28.314l13.102-13.103
	c2.344-2.344,3.065-5.588,1.536-8.513c-0.458-1.25-4.035-12.86,15.116-26.928c3.372-2.477,4.099-7.219,1.62-10.591
	c-2.476-3.372-7.219-4.098-10.592-1.62c-21.699,15.939-22.773,31.859-21.454,39.998l-10.724,10.725
	c-1.898-0.854-3.975-1.302-6.122-1.302c-3.986,0-7.728,1.547-10.537,4.355l-4.939,4.938c-4.495,4.496-5.512,11.173-3.051,16.656
	L89.592,372.476c-16.08,2.526-40.644,14.229-44.707,44.535c-1.084,1.167-10.636,12.08-20.979,18.366
	c-5.063-1.439-10.691-0.128-14.613,3.793l-4.937,4.937C1.547,446.916,0,450.658,0,454.644c0,3.986,1.547,7.728,4.356,10.537
	l10.623,10.624c1.479,1.48,3.418,2.22,5.357,2.22c1.939,0,3.878-0.74,5.357-2.22c2.959-2.959,2.959-7.756,0-10.715L15.25,454.644
	l4.599-4.599c0.32,0.238,41.863,41.977,41.863,41.977l-4.542,4.542l-10.51-10.51c-2.959-2.96-7.757-2.959-10.715,0
	c-2.959,2.959-2.959,7.757,0,10.715l10.688,10.687c2.808,2.81,6.55,4.356,10.537,4.356c3.985,0,7.727-1.547,10.537-4.356
	l4.937-4.937c3.925-3.925,5.233-9.558,3.79-14.623c5.633-10.259,16.816-19.467,18.409-20.974
	c30.273-4.079,41.971-28.629,44.495-44.703l268.872-268.872c1.898,0.854,8.419,4.656,16.658-3.053l4.939-4.938
	c4.495-4.496,5.512-11.173,3.051-16.656l10.572-10.573c4.532,0.771,11.496,0.8,19.653-3.078
	c20.67-9.829,37.054-38.803,48.697-86.117C512.413,26.359,511.654,23.641,509.78,21.767z M66.692,475.561l-30.421-30.479
	c6.959-5.338,15.634-13.492,15.763-13.623l28.336,28.336C79.923,460.223,72.902,468.022,66.692,475.561z M93.761,451.755
	l-33.703-33.703c5.171-24.995,27.313-29.633,30.539-30.311l33.475,33.475C123.394,424.442,115.406,447.443,93.761,451.755z
	 M132.207,407.922l-28.315-28.315l264.607-264.606l28.314,28.314L132.207,407.922z M414.331,139.402l-41.919-41.92l4.58-4.58
	l41.919,41.92L414.331,139.402z"/>
<g>
</g>
<g>
</g>
<g>
</g>
<g>
</g>
<g>
</g>
<g>
</g>
<g>
</g>
<g>
</g>
<g>
</g>
<g>
</g>
<g>
</g>
<g>
</g>
<g>
</g>
<g>
</g>
<g>
</g>
</svg>
